<svg width="450" height="180" viewBox="0 0 450 180" fill="none" xmlns="http://www.w3.org/2000/svg">
<rect x="73" y="39" width="46" height="46" rx="7" stroke="black" stroke-width="2"/>
<path d="M89.68 71.016L85.576 54.552H88.576L91.384 66.744H91.456L94.816 54.552H97.216L100.528 66.744H100.6L103.432 54.552H106.096L102.064 71.016H99.136L95.92 59.064H95.848L92.584 71.016H89.68Z" fill="black"/>
<rect x="73" y="95" width="46" height="46" rx="7" stroke="black" stroke-width="2"/>
<path d="M94.856 125.304C92.696 125.304 91.064 124.848 89.936 124.248V121.92C91.256 122.496 92.816 122.928 94.616 122.928C96.824 122.928 97.76 122.016 97.76 120.528C97.76 119.16 97.16 118.632 95.36 118.08L93.8 117.648C91.472 117 90.056 115.752 90.056 112.968C90.056 110.184 91.856 108.288 95.576 108.288C97.736 108.288 98.912 108.696 99.824 109.176V111.48C98.792 111.048 97.448 110.664 95.624 110.664C93.896 110.664 92.936 111.384 92.936 112.704C92.936 114 93.416 114.552 95.048 115.008L96.584 115.488C99.176 116.232 100.736 117.312 100.736 120.24C100.736 123.36 98.84 125.304 94.856 125.304Z" fill="black"/>
<rect x="17" y="95" width="46" height="46" rx="7" stroke="black" stroke-width="2"/>
<path d="M32.312 124.016L38.312 107.552H41.336L47.192 124.016H44.144L42.656 119.84H36.536L35.048 124.016H32.312ZM39.536 111.056L37.232 117.632H41.912L39.608 111.056H39.536Z" fill="black"/>
<rect x="129" y="95" width="46" height="46" rx="7" stroke="black" stroke-width="2"/>
<path d="M144.944 124.016V107.552H150.344C155.384 107.552 158.216 109.976 158.216 115.352V115.832C158.216 121.112 155.648 124.016 150.368 124.016H144.944ZM147.896 121.688H150.392C153.608 121.688 155.096 120.104 155.096 116.12V115.328C155.096 111.176 153.296 109.88 150.176 109.88H147.896V121.688Z" fill="black"/>
<rect x="208" y="115" width="94" height="46" rx="7" stroke="black" stroke-width="2"/>
<path d="M235.016 144.208C233.408 144.208 231.968 143.92 230.936 143.368V141.352C231.968 141.76 232.88 142.12 234.608 142.12C236.336 142.12 237.056 141.544 237.056 140.632C237.056 139.744 236.576 139.312 235.232 139.024L234.08 138.76C232.184 138.376 230.936 137.416 230.936 135.208C230.936 132.928 232.4 131.464 235.52 131.464C237.2 131.464 238.256 131.776 239.072 132.136V134.224C238.352 133.912 237.152 133.552 235.76 133.552C234.32 133.552 233.552 134.032 233.552 134.992C233.552 135.856 234.032 136.168 235.208 136.456L236.384 136.72C238.808 137.272 239.744 138.232 239.744 140.368C239.744 142.936 238.04 144.208 235.016 144.208ZM242.32 144.016V126.472H245.08V132.712H245.2C246.208 131.968 247.648 131.44 249.136 131.44C251.512 131.44 252.736 132.4 252.736 134.848V144.016H249.952V135.496C249.952 134.248 249.544 133.744 247.864 133.744C246.904 133.744 245.824 134.056 245.08 134.416V144.016H242.32ZM255.985 144.016V131.656H258.769V144.016H255.985ZM255.985 129.616V127.096H258.793V129.616H255.985ZM262.869 144.016V133.816H261.093V131.656H262.869V130.12C262.869 127.456 264.525 126.28 266.853 126.28C267.957 126.28 268.725 126.472 269.181 126.664V128.512C268.845 128.44 268.317 128.344 267.597 128.344C266.301 128.344 265.581 128.944 265.581 130.408V131.656H268.293V133.816H265.581V144.016H262.869ZM275.02 144.16C272.884 144.16 271.516 143.296 271.516 140.968V133.816H269.788V131.656H271.516V128.752H274.228V131.656H277.18V133.816H274.228V140.584C274.228 141.616 274.612 142 275.908 142C276.388 142 276.892 141.928 277.324 141.808V143.656C276.844 143.896 276.172 144.16 275.02 144.16Z" fill="black"/>
<rect x="314" y="115" width="120" height="46" rx="7" stroke="black" stroke-width="2"/>
<path d="M348.016 144.208C346.408 144.208 344.968 143.92 343.936 143.368V141.352C344.968 141.76 345.88 142.12 347.608 142.12C349.336 142.12 350.056 141.544 350.056 140.632C350.056 139.744 349.576 139.312 348.232 139.024L347.08 138.76C345.184 138.376 343.936 137.416 343.936 135.208C343.936 132.928 345.4 131.464 348.52 131.464C350.2 131.464 351.256 131.776 352.072 132.136V134.224C351.352 133.912 350.152 133.552 348.76 133.552C347.32 133.552 346.552 134.032 346.552 134.992C346.552 135.856 347.032 136.168 348.208 136.456L349.384 136.72C351.808 137.272 352.744 138.232 352.744 140.368C352.744 142.936 351.04 144.208 348.016 144.208ZM355.32 147.592V131.656H357.984V132.712H358.08C358.824 131.968 360.096 131.44 361.656 131.44C364.224 131.44 366.552 132.928 366.552 137.464V137.776C366.552 142.408 364.32 144.232 360.96 144.232C359.592 144.232 358.68 143.872 358.08 143.536V147.592H355.32ZM360.576 142.144C362.544 142.144 363.672 141.136 363.672 138.136V137.632C363.672 134.584 362.616 133.696 360.672 133.696C359.496 133.696 358.56 134.08 358.08 134.416V141.424C358.56 141.808 359.496 142.144 360.576 142.144ZM372.267 144.232C370.035 144.232 368.475 143.104 368.475 140.728C368.475 138.448 369.987 137.392 372.435 137.032L375.339 136.696V135.76C375.339 134.08 374.595 133.696 372.507 133.696C371.307 133.696 370.251 133.864 369.507 134.032V132.136C370.659 131.68 371.979 131.464 373.587 131.464C376.443 131.464 378.099 132.568 378.099 135.136V144.016H375.819L375.603 143.008H375.459C374.859 143.704 373.875 144.232 372.267 144.232ZM373.107 142.288C373.995 142.288 374.883 141.976 375.339 141.544V138.496L373.059 138.736C371.835 138.832 371.187 139.336 371.187 140.584C371.187 141.76 371.979 142.288 373.107 142.288ZM386.52 144.232C382.872 144.232 380.616 142.192 380.616 138.112V137.728C380.616 133.456 383.208 131.44 386.64 131.44C388.272 131.44 389.256 131.752 390.048 132.184V134.344C389.016 133.936 388.272 133.672 386.808 133.672C384.744 133.672 383.472 134.968 383.472 137.44V137.992C383.472 140.824 384.648 142.024 387 142.024C388.512 142.024 389.544 141.544 390.168 141.256V143.272C389.376 143.776 388.224 144.232 386.52 144.232ZM397.986 144.232C393.882 144.232 391.866 141.904 391.866 137.992V137.656C391.866 133.504 394.386 131.464 397.53 131.464C401.178 131.464 402.762 133.504 402.762 137.44V138.592H394.698C394.866 141.16 396.186 142.072 398.538 142.072C400.122 142.072 401.274 141.712 402.354 141.16V143.08C401.514 143.632 400.074 144.232 397.986 144.232ZM397.482 133.504C396.21 133.504 394.89 134.176 394.698 136.696H399.954C399.954 134.368 399.09 133.504 397.482 133.504Z" fill="black"/>
<rect x="345" y="30" width="46" height="46" rx="7" stroke="black" stroke-width="2"/>
<path d="M352.62 59.18V45.46H361.18V47.4H355.08V51.16H359.82V53.08H355.08V57.24H361.3V59.18H352.62ZM367.364 59.42C365.564 59.42 364.204 59.04 363.264 58.54V56.6C364.364 57.08 365.664 57.44 367.164 57.44C369.004 57.44 369.784 56.68 369.784 55.44C369.784 54.3 369.284 53.86 367.784 53.4L366.484 53.04C364.544 52.5 363.364 51.46 363.364 49.14C363.364 46.82 364.864 45.24 367.964 45.24C369.764 45.24 370.744 45.58 371.504 45.98V47.9C370.644 47.54 369.524 47.22 368.004 47.22C366.564 47.22 365.764 47.82 365.764 48.92C365.764 50 366.164 50.46 367.524 50.84L368.804 51.24C370.964 51.86 372.264 52.76 372.264 55.2C372.264 57.8 370.684 59.42 367.364 59.42ZM380.229 59.4C376.409 59.4 374.049 57.16 374.049 52.54V52.04C374.049 47.1 376.929 45.24 380.489 45.24C382.009 45.24 383.089 45.5 383.929 45.96V47.88C382.869 47.46 381.929 47.24 380.669 47.24C378.289 47.24 376.709 48.52 376.709 51.78V52.48C376.709 55.62 377.809 57.4 380.689 57.4C382.249 57.4 383.249 57 384.069 56.66V58.56C383.129 59.06 381.869 59.4 380.229 59.4Z" fill="black"/>
<rect x="263" y="23" width="39" height="60" rx="19.5" stroke="black" stroke-width="2"/>
<line x1="262" y1="48" x2="280" y2="48" stroke="black" stroke-width="2"/>
<line x1="285" y1="48" x2="303" y2="48" stroke="black" stroke-width="2"/>
<line x1="283" y1="22" x2="283" y2="39" stroke="black" stroke-width="2"/>
<rect x="279.532" y="22.48" width="2" height="25.341" transform="rotate(43.0116 279.532 22.48)" fill="black"/>
<rect x="282.21" y="27.9634" width="2" height="26.3516" transform="rotate(43.0116 282.21 27.9634)" fill="black"/>
<rect x="282.372" y="35.8213" width="2" height="15.883" transform="rotate(43.0116 282.372 35.8213)" fill="black"/>
<rect x="279.532" y="22.48" width="2" height="25.341" transform="rotate(43.0116 279.532 22.48)" fill="black"/>
<rect x="282.21" y="27.9634" width="2" height="26.3516" transform="rotate(43.0116 282.21 27.9634)" fill="black"/>
<rect x="282.372" y="35.8213" width="2" height="15.883" transform="rotate(43.0116 282.372 35.8213)" fill="black"/>
<path d="M258.734 27.6928C257.312 28.5708 255.941 28.3181 254.959 26.7267L254.866 26.5769C253.838 24.9106 254.364 23.5004 255.702 22.6743C256.339 22.2815 256.798 22.1664 257.211 22.1443L257.731 22.9868C257.23 23.076 256.876 23.1521 256.305 23.5045C255.5 24.0013 255.316 24.8129 255.911 25.7771L256.044 25.9924C256.725 27.0971 257.473 27.2821 258.39 26.716C258.98 26.3521 259.267 25.9165 259.441 25.6539L259.926 26.4403C259.739 26.8275 259.399 27.2826 258.734 27.6928ZM261.058 26.1427L256.835 19.2997L257.921 18.6296L262.144 25.4726L261.058 26.1427ZM263.462 24.6591L260.487 19.8381L261.573 19.168L264.548 23.989L263.462 24.6591ZM259.996 19.0424L259.39 18.0595L260.485 17.3836L261.092 18.3665L259.996 19.0424ZM267.931 22.0178C266.508 22.8958 265.137 22.6431 264.155 21.0517L264.063 20.9019C263.035 19.2356 263.56 17.8254 264.899 16.9994C265.536 16.6066 265.995 16.4915 266.407 16.4693L266.927 17.3118C266.427 17.4011 266.073 17.4772 265.502 17.8296C264.697 18.3263 264.513 19.138 265.107 20.1022L265.24 20.3175C265.922 21.4221 266.669 21.6071 267.587 21.041C268.177 20.6771 268.464 20.2415 268.638 19.979L269.123 20.7653C268.935 21.1525 268.596 21.6077 267.931 22.0178ZM270.236 20.4793L266.013 13.6363L267.09 12.972L271.312 19.815L270.236 20.4793ZM273.11 18.7059C272.945 18.6269 270.019 17.3427 269.869 17.2672C269.863 17.0899 270.085 14.0968 270.084 13.9289L271.208 13.2358C271.183 13.4059 270.958 16.3499 270.952 16.5085C271.112 16.5782 274.128 17.8839 274.299 17.9723L273.11 18.7059ZM274.192 15.4657L271.079 10.7559L272.296 10.0049L275.128 14.8881L274.192 15.4657ZM275.329 17.5174L274.653 16.4222L275.777 15.729L276.452 16.8243L275.329 17.5174Z" fill="black"/>
<rect x="280" y="38" width="6" height="13" rx="3" stroke="black" stroke-width="2"/>
<line x1="1" y1="4.37114e-08" x2="0.999992" y2="180" stroke="black" stroke-width="2"/>
<line x1="449" x2="449" y2="180" stroke="black" stroke-width="2"/>
<line y1="179" x2="450" y2="179" stroke="black" stroke-width="2"/>
<line y1="1" x2="450" y2="1" stroke="black" stroke-width="2"/>
<path d="M192 23L192 159" stroke="black" stroke-width="2"/>
<line x1="207" y1="95" x2="435" y2="95" stroke="black" stroke-width="2"/>
</svg>
